<svg width="77" height="76" viewBox="0 0 77 76" fill="none" xmlns="http://www.w3.org/2000/svg">
<path opacity="0.06" d="M55.4036 0.265625H21.6277C10.08 0.265625 0.71875 9.62687 0.71875 21.1745V54.9505C0.71875 66.4981 10.08 75.8594 21.6277 75.8594H55.4036C66.9513 75.8594 76.3125 66.4981 76.3125 54.9505V21.1745C76.3125 9.62687 66.9513 0.265625 55.4036 0.265625Z" fill="#0089FF"/>
<path d="M38.5157 63.8029C52.7318 63.8029 64.2561 52.2786 64.2561 38.0625C64.2561 23.8465 52.7318 12.3221 38.5157 12.3221C24.2997 12.3221 12.7753 23.8465 12.7753 38.0625C12.7753 52.2786 24.2997 63.8029 38.5157 63.8029Z" fill="#1B76FF"/>
<path fill-rule="evenodd" clip-rule="evenodd" d="M25.1058 33.7729C24.813 33.7729 24.6434 33.9895 24.6434 34.175V49.9236C24.6434 50.1091 24.813 50.3257 25.1058 50.3257H28.9474V33.7729H25.1058ZM23.035 34.175C23.035 33.0282 23.9996 32.1646 25.1058 32.1646H29.7516C30.1957 32.1646 30.5557 32.5246 30.5557 32.9687V51.1299C30.5557 51.574 30.1957 51.9341 29.7516 51.9341H25.1058C23.9996 51.9341 23.035 51.0705 23.035 49.9236V34.175Z" fill="white"/>
<path fill-rule="evenodd" clip-rule="evenodd" d="M40.4649 21.7777C38.6506 21.7777 37.2476 23.1689 37.2476 24.8035V26.8104C37.2476 29.0505 36.6452 30.7464 35.2973 31.9153C34.1314 32.9264 32.5104 33.4489 30.5558 33.7079V47.8681C30.5558 49.1776 31.7034 50.3257 33.2171 50.3257H47.2847C48.5268 50.3257 49.3827 50.0618 49.9454 49.6368C50.4893 49.2261 50.8567 48.5911 50.9821 47.6261C50.9844 47.6086 50.9872 47.5913 50.9906 47.574C51.0869 47.0861 51.18 46.6145 51.2699 46.159C51.8839 43.0492 52.3505 40.6856 52.6715 38.9349C53.0465 36.8898 53.2031 35.7758 53.1915 35.2877V35.2876C53.1609 33.9962 52.026 32.8801 50.5298 32.8801H46.0424C45.507 32.8801 44.9597 32.753 44.5212 32.525C44.1414 32.3276 43.5651 31.8966 43.5651 31.1765V25.3673C43.5651 23.7621 43.0277 22.8195 42.3652 22.3622M35.6392 24.8035C35.6392 22.2076 37.8372 20.1693 40.4649 20.1693C41.4714 20.1693 42.4558 20.4715 43.2781 21.038L43.2787 21.0384C44.5065 21.8859 45.1735 23.4144 45.1735 25.3673V31.0443C45.1949 31.0594 45.2242 31.0778 45.2631 31.098C45.452 31.1962 45.7412 31.2717 46.0424 31.2717H50.5298C52.8144 31.2717 54.7461 33.0023 54.7994 35.2494L53.9955 35.2685L54.7994 35.2494C54.7994 35.2494 54.7994 35.2494 54.7994 35.2494C54.8159 35.9408 54.6171 37.2421 54.2535 39.225C53.9304 40.9874 53.4612 43.3636 52.8478 46.4704C52.7594 46.9184 52.668 47.3816 52.5735 47.8603C52.5747 47.8513 52.5759 47.8423 52.5771 47.8333L51.7796 47.7297L52.5686 47.8853C52.5702 47.877 52.5719 47.8686 52.5735 47.8603C52.4009 49.1465 51.866 50.2019 50.9147 50.9203C49.9756 51.6295 48.7312 51.934 47.2847 51.934H33.2171C30.9083 51.934 28.9474 50.1563 28.9474 47.8681V32.9905C28.9474 32.5766 29.2616 32.2303 29.6735 32.1901C31.8541 31.9775 33.3204 31.5008 34.2436 30.7002C35.1263 29.9347 35.6392 28.758 35.6392 26.8104V24.8035ZM40.4649 21.7777C41.151 21.7777 41.8159 21.9839 42.3651 22.3621L40.4649 21.7777Z" fill="white"/>
</svg>
