<svg width="76" height="76" viewBox="0 0 76 76" fill="none" xmlns="http://www.w3.org/2000/svg">
<path opacity="0.06" d="M54.9787 0H21.0213C9.41155 0 0 9.41155 0 21.0213V54.9787C0 66.5885 9.41155 76 21.0213 76H54.9787C66.5885 76 76 66.5885 76 54.9787V21.0213C76 9.41155 66.5885 0 54.9787 0Z" fill="#F6CA4F"/>
<path d="M38.0001 63.8788C52.2925 63.8788 63.8788 52.2925 63.8788 38.0001C63.8788 23.7076 52.2925 12.1213 38.0001 12.1213C23.7076 12.1213 12.1213 23.7076 12.1213 38.0001C12.1213 52.2925 23.7076 63.8788 38.0001 63.8788Z" fill="#FF6D35"/>
<path fill-rule="evenodd" clip-rule="evenodd" d="M28.4495 27.3271C26.6672 27.3271 25.2048 28.7895 25.2048 30.5718V45.4282C25.2048 47.2105 26.6672 48.6729 28.4495 48.6729H47.5505C49.3328 48.6729 50.7952 47.2105 50.7952 45.4282V30.5718C50.7952 28.7895 49.3328 27.3271 47.5505 27.3271H28.4495ZM23.2048 30.5718C23.2048 27.685 25.5626 25.3271 28.4495 25.3271H47.5505C50.4374 25.3271 52.7952 27.685 52.7952 30.5718V45.4282C52.7952 48.3151 50.4374 50.6729 47.5505 50.6729H28.4495C25.5626 50.6729 23.2048 48.3151 23.2048 45.4282V30.5718Z" fill="white"/>
<path fill-rule="evenodd" clip-rule="evenodd" d="M23.3531 31.1089C23.6426 30.6385 24.2585 30.4918 24.7289 30.7813L38 38.9481L51.2711 30.7813C51.7415 30.4918 52.3574 30.6385 52.6469 31.1089C52.9363 31.5792 52.7897 32.1952 52.3193 32.4846L38.5241 40.974C38.2027 41.1718 37.7973 41.1718 37.4759 40.974L23.6807 32.4846C23.2103 32.1952 23.0637 31.5792 23.3531 31.1089Z" fill="white"/>
</svg>
