<svg>

    <svg xmlns="http://www.w3.org/2000/svg" width="123" height="123" viewBox="0 0 123 123" fill="none">
        <g id="points">
            <path id="div_2" d="M0.3125 5.04688C0.3125 2.28545 2.55108 0.046875 5.3125 0.046875C8.07392 0.046875 10.3125 2.28545 10.3125 5.04688C10.3125 7.8083 8.07392 10.0469 5.3125 10.0469C2.55108 10.0469 0.3125 7.8083 0.3125 5.04688Z" fill="#81818B" fill-opacity="0.2"/>
            <path id="div_3" d="M16.3125 5.04688C16.3125 2.28545 18.5511 0.046875 21.3125 0.046875C24.0739 0.046875 26.3125 2.28545 26.3125 5.04688C26.3125 7.8083 24.0739 10.0469 21.3125 10.0469C18.5511 10.0469 16.3125 7.8083 16.3125 5.04688Z" fill="#81818B" fill-opacity="0.2"/>
            <path id="div_4" d="M32.3125 5.04688C32.3125 2.28545 34.5511 0.046875 37.3125 0.046875C40.0739 0.046875 42.3125 2.28545 42.3125 5.04688C42.3125 7.8083 40.0739 10.0469 37.3125 10.0469C34.5511 10.0469 32.3125 7.8083 32.3125 5.04688Z" fill="#81818B" fill-opacity="0.2"/>
            <path id="div_5" d="M48.3125 5.04688C48.3125 2.28545 50.5511 0.046875 53.3125 0.046875C56.0739 0.046875 58.3125 2.28545 58.3125 5.04688C58.3125 7.8083 56.0739 10.0469 53.3125 10.0469C50.5511 10.0469 48.3125 7.8083 48.3125 5.04688Z" fill="#81818B" fill-opacity="0.2"/>
            <path id="div_6" d="M64.3125 5.04688C64.3125 2.28545 66.5511 0.046875 69.3125 0.046875C72.0739 0.046875 74.3125 2.28545 74.3125 5.04688C74.3125 7.8083 72.0739 10.0469 69.3125 10.0469C66.5511 10.0469 64.3125 7.8083 64.3125 5.04688Z" fill="#81818B" fill-opacity="0.2"/>
            <path id="div_7" d="M80.3125 5.04688C80.3125 2.28545 82.5511 0.046875 85.3125 0.046875C88.0739 0.046875 90.3125 2.28545 90.3125 5.04688C90.3125 7.8083 88.0739 10.0469 85.3125 10.0469C82.5511 10.0469 80.3125 7.8083 80.3125 5.04688Z" fill="#81818B" fill-opacity="0.2"/>
            <path id="div_8" d="M96.3125 5.04688C96.3125 2.28545 98.5511 0.046875 101.312 0.046875C104.074 0.046875 106.312 2.28545 106.312 5.04688C106.312 7.8083 104.074 10.0469 101.312 10.0469C98.5511 10.0469 96.3125 7.8083 96.3125 5.04688Z" fill="#81818B" fill-opacity="0.2"/>
            <path id="div_9" d="M112.312 5.04688C112.312 2.28545 114.551 0.046875 117.312 0.046875C120.074 0.046875 122.312 2.28545 122.312 5.04688C122.312 7.8083 120.074 10.0469 117.312 10.0469C114.551 10.0469 112.312 7.8083 112.312 5.04688Z" fill="#81818B" fill-opacity="0.2"/>
            <path id="div_10" d="M0.3125 21.0469C0.3125 18.2855 2.55108 16.0469 5.3125 16.0469C8.07392 16.0469 10.3125 18.2855 10.3125 21.0469C10.3125 23.8083 8.07392 26.0469 5.3125 26.0469C2.55108 26.0469 0.3125 23.8083 0.3125 21.0469Z" fill="#81818B" fill-opacity="0.2"/>
            <path id="div_11" d="M16.3125 21.0469C16.3125 18.2855 18.5511 16.0469 21.3125 16.0469C24.0739 16.0469 26.3125 18.2855 26.3125 21.0469C26.3125 23.8083 24.0739 26.0469 21.3125 26.0469C18.5511 26.0469 16.3125 23.8083 16.3125 21.0469Z" fill="#81818B" fill-opacity="0.2"/>
            <path id="div_12" d="M32.3125 21.0469C32.3125 18.2855 34.5511 16.0469 37.3125 16.0469C40.0739 16.0469 42.3125 18.2855 42.3125 21.0469C42.3125 23.8083 40.0739 26.0469 37.3125 26.0469C34.5511 26.0469 32.3125 23.8083 32.3125 21.0469Z" fill="#81818B" fill-opacity="0.2"/>
            <path id="div_13" d="M48.3125 21.0469C48.3125 18.2855 50.5511 16.0469 53.3125 16.0469C56.0739 16.0469 58.3125 18.2855 58.3125 21.0469C58.3125 23.8083 56.0739 26.0469 53.3125 26.0469C50.5511 26.0469 48.3125 23.8083 48.3125 21.0469Z" fill="#81818B" fill-opacity="0.2"/>
            <path id="div_14" d="M64.3125 21.0469C64.3125 18.2855 66.5511 16.0469 69.3125 16.0469C72.0739 16.0469 74.3125 18.2855 74.3125 21.0469C74.3125 23.8083 72.0739 26.0469 69.3125 26.0469C66.5511 26.0469 64.3125 23.8083 64.3125 21.0469Z" fill="#81818B" fill-opacity="0.2"/>
            <path id="div_15" d="M80.3125 21.0469C80.3125 18.2855 82.5511 16.0469 85.3125 16.0469C88.0739 16.0469 90.3125 18.2855 90.3125 21.0469C90.3125 23.8083 88.0739 26.0469 85.3125 26.0469C82.5511 26.0469 80.3125 23.8083 80.3125 21.0469Z" fill="#81818B" fill-opacity="0.2"/>
            <path id="div_16" d="M96.3125 21.0469C96.3125 18.2855 98.5511 16.0469 101.312 16.0469C104.074 16.0469 106.312 18.2855 106.312 21.0469C106.312 23.8083 104.074 26.0469 101.312 26.0469C98.5511 26.0469 96.3125 23.8083 96.3125 21.0469Z" fill="#81818B" fill-opacity="0.2"/>
            <path id="div_17" d="M112.312 21.0469C112.312 18.2855 114.551 16.0469 117.312 16.0469C120.074 16.0469 122.312 18.2855 122.312 21.0469C122.312 23.8083 120.074 26.0469 117.312 26.0469C114.551 26.0469 112.312 23.8083 112.312 21.0469Z" fill="#81818B" fill-opacity="0.2"/>
            <path id="div_18" d="M0.3125 37.0469C0.3125 34.2855 2.55108 32.0469 5.3125 32.0469C8.07392 32.0469 10.3125 34.2855 10.3125 37.0469C10.3125 39.8083 8.07392 42.0469 5.3125 42.0469C2.55108 42.0469 0.3125 39.8083 0.3125 37.0469Z" fill="#81818B" fill-opacity="0.2"/>
            <path id="div_19" d="M16.3125 37.0469C16.3125 34.2855 18.5511 32.0469 21.3125 32.0469C24.0739 32.0469 26.3125 34.2855 26.3125 37.0469C26.3125 39.8083 24.0739 42.0469 21.3125 42.0469C18.5511 42.0469 16.3125 39.8083 16.3125 37.0469Z" fill="#81818B" fill-opacity="0.2"/>
            <path id="div_20" d="M32.3125 37.0469C32.3125 34.2855 34.5511 32.0469 37.3125 32.0469C40.0739 32.0469 42.3125 34.2855 42.3125 37.0469C42.3125 39.8083 40.0739 42.0469 37.3125 42.0469C34.5511 42.0469 32.3125 39.8083 32.3125 37.0469Z" fill="#81818B" fill-opacity="0.2"/>
            <path id="div_21" d="M48.3125 37.0469C48.3125 34.2855 50.5511 32.0469 53.3125 32.0469C56.0739 32.0469 58.3125 34.2855 58.3125 37.0469C58.3125 39.8083 56.0739 42.0469 53.3125 42.0469C50.5511 42.0469 48.3125 39.8083 48.3125 37.0469Z" fill="#81818B" fill-opacity="0.2"/>
            <path id="div_22" d="M64.3125 37.0469C64.3125 34.2855 66.5511 32.0469 69.3125 32.0469C72.0739 32.0469 74.3125 34.2855 74.3125 37.0469C74.3125 39.8083 72.0739 42.0469 69.3125 42.0469C66.5511 42.0469 64.3125 39.8083 64.3125 37.0469Z" fill="#81818B" fill-opacity="0.2"/>
            <path id="div_23" d="M80.3125 37.0469C80.3125 34.2855 82.5511 32.0469 85.3125 32.0469C88.0739 32.0469 90.3125 34.2855 90.3125 37.0469C90.3125 39.8083 88.0739 42.0469 85.3125 42.0469C82.5511 42.0469 80.3125 39.8083 80.3125 37.0469Z" fill="#81818B" fill-opacity="0.2"/>
            <path id="div_24" d="M96.3125 37.0469C96.3125 34.2855 98.5511 32.0469 101.312 32.0469C104.074 32.0469 106.312 34.2855 106.312 37.0469C106.312 39.8083 104.074 42.0469 101.312 42.0469C98.5511 42.0469 96.3125 39.8083 96.3125 37.0469Z" fill="#81818B" fill-opacity="0.2"/>
            <path id="div_25" d="M112.312 37.0469C112.312 34.2855 114.551 32.0469 117.312 32.0469C120.074 32.0469 122.312 34.2855 122.312 37.0469C122.312 39.8083 120.074 42.0469 117.312 42.0469C114.551 42.0469 112.312 39.8083 112.312 37.0469Z" fill="#81818B" fill-opacity="0.2"/>
            <path id="div_26" d="M0.3125 53.0469C0.3125 50.2855 2.55108 48.0469 5.3125 48.0469C8.07392 48.0469 10.3125 50.2855 10.3125 53.0469C10.3125 55.8083 8.07392 58.0469 5.3125 58.0469C2.55108 58.0469 0.3125 55.8083 0.3125 53.0469Z" fill="#81818B" fill-opacity="0.2"/>
            <path id="div_27" d="M16.3125 53.0469C16.3125 50.2855 18.5511 48.0469 21.3125 48.0469C24.0739 48.0469 26.3125 50.2855 26.3125 53.0469C26.3125 55.8083 24.0739 58.0469 21.3125 58.0469C18.5511 58.0469 16.3125 55.8083 16.3125 53.0469Z" fill="#81818B" fill-opacity="0.2"/>
            <path id="div_28" d="M32.3125 53.0469C32.3125 50.2855 34.5511 48.0469 37.3125 48.0469C40.0739 48.0469 42.3125 50.2855 42.3125 53.0469C42.3125 55.8083 40.0739 58.0469 37.3125 58.0469C34.5511 58.0469 32.3125 55.8083 32.3125 53.0469Z" fill="#81818B" fill-opacity="0.2"/>
            <path id="div_29" d="M48.3125 53.0469C48.3125 50.2855 50.5511 48.0469 53.3125 48.0469C56.0739 48.0469 58.3125 50.2855 58.3125 53.0469C58.3125 55.8083 56.0739 58.0469 53.3125 58.0469C50.5511 58.0469 48.3125 55.8083 48.3125 53.0469Z" fill="#81818B" fill-opacity="0.2"/>
            <path id="div_30" d="M64.3125 53.0469C64.3125 50.2855 66.5511 48.0469 69.3125 48.0469C72.0739 48.0469 74.3125 50.2855 74.3125 53.0469C74.3125 55.8083 72.0739 58.0469 69.3125 58.0469C66.5511 58.0469 64.3125 55.8083 64.3125 53.0469Z" fill="#81818B" fill-opacity="0.2"/>
            <path id="div_31" d="M80.3125 53.0469C80.3125 50.2855 82.5511 48.0469 85.3125 48.0469C88.0739 48.0469 90.3125 50.2855 90.3125 53.0469C90.3125 55.8083 88.0739 58.0469 85.3125 58.0469C82.5511 58.0469 80.3125 55.8083 80.3125 53.0469Z" fill="#81818B" fill-opacity="0.2"/>
            <path id="div_32" d="M96.3125 53.0469C96.3125 50.2855 98.5511 48.0469 101.312 48.0469C104.074 48.0469 106.312 50.2855 106.312 53.0469C106.312 55.8083 104.074 58.0469 101.312 58.0469C98.5511 58.0469 96.3125 55.8083 96.3125 53.0469Z" fill="#81818B" fill-opacity="0.2"/>
            <path id="div_33" d="M112.312 53.0469C112.312 50.2855 114.551 48.0469 117.312 48.0469C120.074 48.0469 122.312 50.2855 122.312 53.0469C122.312 55.8083 120.074 58.0469 117.312 58.0469C114.551 58.0469 112.312 55.8083 112.312 53.0469Z" fill="#81818B" fill-opacity="0.2"/>
            <path id="div_34" d="M0.3125 69.0469C0.3125 66.2855 2.55108 64.0469 5.3125 64.0469C8.07392 64.0469 10.3125 66.2855 10.3125 69.0469C10.3125 71.8083 8.07392 74.0469 5.3125 74.0469C2.55108 74.0469 0.3125 71.8083 0.3125 69.0469Z" fill="#81818B" fill-opacity="0.2"/>
            <path id="div_35" d="M16.3125 69.0469C16.3125 66.2855 18.5511 64.0469 21.3125 64.0469C24.0739 64.0469 26.3125 66.2855 26.3125 69.0469C26.3125 71.8083 24.0739 74.0469 21.3125 74.0469C18.5511 74.0469 16.3125 71.8083 16.3125 69.0469Z" fill="#81818B" fill-opacity="0.2"/>
            <path id="div_36" d="M32.3125 69.0469C32.3125 66.2855 34.5511 64.0469 37.3125 64.0469C40.0739 64.0469 42.3125 66.2855 42.3125 69.0469C42.3125 71.8083 40.0739 74.0469 37.3125 74.0469C34.5511 74.0469 32.3125 71.8083 32.3125 69.0469Z" fill="#81818B" fill-opacity="0.2"/>
            <path id="div_37" d="M48.3125 69.0469C48.3125 66.2855 50.5511 64.0469 53.3125 64.0469C56.0739 64.0469 58.3125 66.2855 58.3125 69.0469C58.3125 71.8083 56.0739 74.0469 53.3125 74.0469C50.5511 74.0469 48.3125 71.8083 48.3125 69.0469Z" fill="#81818B" fill-opacity="0.2"/>
            <path id="div_38" d="M64.3125 69.0469C64.3125 66.2855 66.5511 64.0469 69.3125 64.0469C72.0739 64.0469 74.3125 66.2855 74.3125 69.0469C74.3125 71.8083 72.0739 74.0469 69.3125 74.0469C66.5511 74.0469 64.3125 71.8083 64.3125 69.0469Z" fill="#81818B" fill-opacity="0.2"/>
            <path id="div_39" d="M80.3125 69.0469C80.3125 66.2855 82.5511 64.0469 85.3125 64.0469C88.0739 64.0469 90.3125 66.2855 90.3125 69.0469C90.3125 71.8083 88.0739 74.0469 85.3125 74.0469C82.5511 74.0469 80.3125 71.8083 80.3125 69.0469Z" fill="#81818B" fill-opacity="0.2"/>
            <path id="div_40" d="M96.3125 69.0469C96.3125 66.2855 98.5511 64.0469 101.312 64.0469C104.074 64.0469 106.312 66.2855 106.312 69.0469C106.312 71.8083 104.074 74.0469 101.312 74.0469C98.5511 74.0469 96.3125 71.8083 96.3125 69.0469Z" fill="#81818B" fill-opacity="0.2"/>
            <path id="div_41" d="M112.312 69.0469C112.312 66.2855 114.551 64.0469 117.312 64.0469C120.074 64.0469 122.312 66.2855 122.312 69.0469C122.312 71.8083 120.074 74.0469 117.312 74.0469C114.551 74.0469 112.312 71.8083 112.312 69.0469Z" fill="#81818B" fill-opacity="0.2"/>
            <path id="div_42" d="M0.3125 85.0469C0.3125 82.2855 2.55108 80.0469 5.3125 80.0469C8.07392 80.0469 10.3125 82.2855 10.3125 85.0469C10.3125 87.8083 8.07392 90.0469 5.3125 90.0469C2.55108 90.0469 0.3125 87.8083 0.3125 85.0469Z" fill="#81818B" fill-opacity="0.2"/>
            <path id="div_43" d="M16.3125 85.0469C16.3125 82.2855 18.5511 80.0469 21.3125 80.0469C24.0739 80.0469 26.3125 82.2855 26.3125 85.0469C26.3125 87.8083 24.0739 90.0469 21.3125 90.0469C18.5511 90.0469 16.3125 87.8083 16.3125 85.0469Z" fill="#81818B" fill-opacity="0.2"/>
            <path id="div_44" d="M32.3125 85.0469C32.3125 82.2855 34.5511 80.0469 37.3125 80.0469C40.0739 80.0469 42.3125 82.2855 42.3125 85.0469C42.3125 87.8083 40.0739 90.0469 37.3125 90.0469C34.5511 90.0469 32.3125 87.8083 32.3125 85.0469Z" fill="#81818B" fill-opacity="0.2"/>
            <path id="div_45" d="M48.3125 85.0469C48.3125 82.2855 50.5511 80.0469 53.3125 80.0469C56.0739 80.0469 58.3125 82.2855 58.3125 85.0469C58.3125 87.8083 56.0739 90.0469 53.3125 90.0469C50.5511 90.0469 48.3125 87.8083 48.3125 85.0469Z" fill="#81818B" fill-opacity="0.2"/>
            <path id="div_46" d="M64.3125 85.0469C64.3125 82.2855 66.5511 80.0469 69.3125 80.0469C72.0739 80.0469 74.3125 82.2855 74.3125 85.0469C74.3125 87.8083 72.0739 90.0469 69.3125 90.0469C66.5511 90.0469 64.3125 87.8083 64.3125 85.0469Z" fill="#81818B" fill-opacity="0.2"/>
            <path id="div_47" d="M80.3125 85.0469C80.3125 82.2855 82.5511 80.0469 85.3125 80.0469C88.0739 80.0469 90.3125 82.2855 90.3125 85.0469C90.3125 87.8083 88.0739 90.0469 85.3125 90.0469C82.5511 90.0469 80.3125 87.8083 80.3125 85.0469Z" fill="#81818B" fill-opacity="0.2"/>
            <path id="div_48" d="M96.3125 85.0469C96.3125 82.2855 98.5511 80.0469 101.312 80.0469C104.074 80.0469 106.312 82.2855 106.312 85.0469C106.312 87.8083 104.074 90.0469 101.312 90.0469C98.5511 90.0469 96.3125 87.8083 96.3125 85.0469Z" fill="#81818B" fill-opacity="0.2"/>
            <path id="div_49" d="M112.312 85.0469C112.312 82.2855 114.551 80.0469 117.312 80.0469C120.074 80.0469 122.312 82.2855 122.312 85.0469C122.312 87.8083 120.074 90.0469 117.312 90.0469C114.551 90.0469 112.312 87.8083 112.312 85.0469Z" fill="#81818B" fill-opacity="0.2"/>
            <path id="div_50" d="M0.3125 101.047C0.3125 98.2855 2.55108 96.0469 5.3125 96.0469C8.07392 96.0469 10.3125 98.2855 10.3125 101.047C10.3125 103.808 8.07392 106.047 5.3125 106.047C2.55108 106.047 0.3125 103.808 0.3125 101.047Z" fill="#81818B" fill-opacity="0.2"/>
            <path id="div_51" d="M16.3125 101.047C16.3125 98.2855 18.5511 96.0469 21.3125 96.0469C24.0739 96.0469 26.3125 98.2855 26.3125 101.047C26.3125 103.808 24.0739 106.047 21.3125 106.047C18.5511 106.047 16.3125 103.808 16.3125 101.047Z" fill="#81818B" fill-opacity="0.2"/>
            <path id="div_52" d="M32.3125 101.047C32.3125 98.2855 34.5511 96.0469 37.3125 96.0469C40.0739 96.0469 42.3125 98.2855 42.3125 101.047C42.3125 103.808 40.0739 106.047 37.3125 106.047C34.5511 106.047 32.3125 103.808 32.3125 101.047Z" fill="#81818B" fill-opacity="0.2"/>
            <path id="div_53" d="M48.3125 101.047C48.3125 98.2855 50.5511 96.0469 53.3125 96.0469C56.0739 96.0469 58.3125 98.2855 58.3125 101.047C58.3125 103.808 56.0739 106.047 53.3125 106.047C50.5511 106.047 48.3125 103.808 48.3125 101.047Z" fill="#81818B" fill-opacity="0.2"/>
            <path id="div_54" d="M64.3125 101.047C64.3125 98.2855 66.5511 96.0469 69.3125 96.0469C72.0739 96.0469 74.3125 98.2855 74.3125 101.047C74.3125 103.808 72.0739 106.047 69.3125 106.047C66.5511 106.047 64.3125 103.808 64.3125 101.047Z" fill="#81818B" fill-opacity="0.2"/>
            <path id="div_55" d="M80.3125 101.047C80.3125 98.2855 82.5511 96.0469 85.3125 96.0469C88.0739 96.0469 90.3125 98.2855 90.3125 101.047C90.3125 103.808 88.0739 106.047 85.3125 106.047C82.5511 106.047 80.3125 103.808 80.3125 101.047Z" fill="#81818B" fill-opacity="0.2"/>
            <path id="div_56" d="M96.3125 101.047C96.3125 98.2855 98.5511 96.0469 101.312 96.0469C104.074 96.0469 106.312 98.2855 106.312 101.047C106.312 103.808 104.074 106.047 101.312 106.047C98.5511 106.047 96.3125 103.808 96.3125 101.047Z" fill="#81818B" fill-opacity="0.2"/>
            <path id="div_57" d="M112.312 101.047C112.312 98.2855 114.551 96.0469 117.312 96.0469C120.074 96.0469 122.312 98.2855 122.312 101.047C122.312 103.808 120.074 106.047 117.312 106.047C114.551 106.047 112.312 103.808 112.312 101.047Z" fill="#81818B" fill-opacity="0.2"/>
            <path id="div_58" d="M0.3125 117.047C0.3125 114.285 2.55108 112.047 5.3125 112.047C8.07392 112.047 10.3125 114.285 10.3125 117.047C10.3125 119.808 8.07392 122.047 5.3125 122.047C2.55108 122.047 0.3125 119.808 0.3125 117.047Z" fill="#81818B" fill-opacity="0.2"/>
            <path id="div_59" d="M16.3125 117.047C16.3125 114.285 18.5511 112.047 21.3125 112.047C24.0739 112.047 26.3125 114.285 26.3125 117.047C26.3125 119.808 24.0739 122.047 21.3125 122.047C18.5511 122.047 16.3125 119.808 16.3125 117.047Z" fill="#81818B" fill-opacity="0.2"/>
            <path id="div_60" d="M32.3125 117.047C32.3125 114.285 34.5511 112.047 37.3125 112.047C40.0739 112.047 42.3125 114.285 42.3125 117.047C42.3125 119.808 40.0739 122.047 37.3125 122.047C34.5511 122.047 32.3125 119.808 32.3125 117.047Z" fill="#81818B" fill-opacity="0.2"/>
            <path id="div_61" d="M48.3125 117.047C48.3125 114.285 50.5511 112.047 53.3125 112.047C56.0739 112.047 58.3125 114.285 58.3125 117.047C58.3125 119.808 56.0739 122.047 53.3125 122.047C50.5511 122.047 48.3125 119.808 48.3125 117.047Z" fill="#81818B" fill-opacity="0.2"/>
            <path id="div_62" d="M64.3125 117.047C64.3125 114.285 66.5511 112.047 69.3125 112.047C72.0739 112.047 74.3125 114.285 74.3125 117.047C74.3125 119.808 72.0739 122.047 69.3125 122.047C66.5511 122.047 64.3125 119.808 64.3125 117.047Z" fill="#81818B" fill-opacity="0.2"/>
            <path id="div_63" d="M80.3125 117.047C80.3125 114.285 82.5511 112.047 85.3125 112.047C88.0739 112.047 90.3125 114.285 90.3125 117.047C90.3125 119.808 88.0739 122.047 85.3125 122.047C82.5511 122.047 80.3125 119.808 80.3125 117.047Z" fill="#81818B" fill-opacity="0.2"/>
            <path id="div_64" d="M96.3125 117.047C96.3125 114.285 98.5511 112.047 101.312 112.047C104.074 112.047 106.312 114.285 106.312 117.047C106.312 119.808 104.074 122.047 101.312 122.047C98.5511 122.047 96.3125 119.808 96.3125 117.047Z" fill="#81818B" fill-opacity="0.2"/>
            <path id="div_65" d="M112.312 117.047C112.312 114.285 114.551 112.047 117.312 112.047C120.074 112.047 122.312 114.285 122.312 117.047C122.312 119.808 120.074 122.047 117.312 122.047C114.551 122.047 112.312 119.808 112.312 117.047Z" fill="#81818B" fill-opacity="0.2"/>
        </g>
</svg>


</svg>