<svg xmlns="http://www.w3.org/2000/svg" version="1.1" xmlns:xlink="http://www.w3.org/1999/xlink"
	xmlns:svgjs="http://svgjs.com/svgjs" x="0" y="0" viewBox="0 0 32 32"
	style="enable-background:new 0 0 512 512" xml:space="preserve" class="">
	<g transform="matrix(1.05,0,0,1.05,-0.7999999761581442,-0.8000000000000007)">
		<path
			d="M16 1a6 6 0 0 0-6 6v1h-.83a3.27 3.27 0 0 0-3.27 3.12l-.79 16.45A3.28 3.28 0 0 0 8.38 31h15.24a3.28 3.28 0 0 0 3.27-3.43l-.79-16.45A3.27 3.27 0 0 0 22.83 8H22V7a6 6 0 0 0-6-6zm-4 6a4 4 0 0 1 8 0v1h-8zm12.1 4.21.79 16.46a1.31 1.31 0 0 1-.35.94 1.29 1.29 0 0 1-.92.39H8.38a1.29 1.29 0 0 1-.92-.39 1.31 1.31 0 0 1-.35-.94l.79-16.46A1.27 1.27 0 0 1 9.17 10h13.66a1.27 1.27 0 0 1 1.27 1.21z"
			data-name="Layer 2" fill="#ffffff" data-original="#000000" class=""></path>
	</g>
</svg>