<svg width="31" height="33" viewBox="0 0 31 33" fill="none" xmlns="http://www.w3.org/2000/svg">
<path d="M16.1565 7.63203C16.1565 3.5628 19.4552 0.264065 23.5244 0.264065H30.8924V7.63203C30.8924 11.7013 27.5937 15 23.5244 15C19.4552 15 16.1565 11.7013 16.1565 7.63203Z" fill="#FF6D35"/>
<path d="M23.5243 32.6771C19.4551 32.6771 16.1564 29.3784 16.1564 25.3092V17.9412H23.5243C27.5936 17.9412 30.8923 21.2399 30.8923 25.3092C30.8923 29.3784 27.5936 32.6771 23.5243 32.6771Z" fill="#5CC97B"/>
<path d="M13.8348 15.6522C13.8348 7.47541 7.70857 0.846943 0.151466 0.846943V25.0214C0.151466 29.1097 3.21458 32.424 6.99325 32.424C10.7718 32.424 13.8348 29.1097 13.8348 25.0214V15.6522Z" fill="#3D96F4"/>
</svg>
